{
	"asset":{
		"generator":"Khronos glTF Blender I/O v4.1.62",
		"version":"2.0"
	},
	"scene":0,
	"scenes":[
		{
			"name":"Scene",
			"nodes":[
				3,
				4
			]
		}
	],
	"nodes":[
		{
			"mesh":0,
			"name":"External Plates",
			"scale":[
				0.7507737874984741,
				3.1476423740386963,
				0.686669647693634
			],
			"translation":[
				0,
				5.595575332641602,
				0
			]
		},
		{
			"mesh":1,
			"name":"Plane",
			"scale":[
				0.7431958317756653,
				3.1476423740386963,
				0.686669647693634
			],
			"translation":[
				0,
				5.595575332641602,
				0
			]
		},
		{
			"mesh":2,
			"name":"Windows.001",
			"translation":[
				0,
				0.3043971359729767,
				0
			]
		},
		{
			"children":[
				0,
				1,
				2
			],
			"mesh":3,
			"name":"Train 1",
			"scale":[
				1.3455402851104736,
				0.3176981210708618,
				1.4563043117523193
			]
		},
		{
			"mesh":4,
			"name":"Wheels.002"
		}
	],
	"materials":[
		{
			"doubleSided":true,
			"name":"Material.004",
			"pbrMetallicRoughness":{
				"baseColorFactor":[
					1,
					0.6863638162612915,
					0,
					1
				],
				"metallicFactor":0
			}
		},
		{
			"doubleSided":true,
			"name":"Windows.002",
			"pbrMetallicRoughness":{
				"baseColorFactor":[
					0,
					0.7456964254379272,
					0.8003232479095459,
					1
				],
				"metallicFactor":0
			}
		},
		{
			"doubleSided":true,
			"name":"Metal2",
			"pbrMetallicRoughness":{
				"baseColorFactor":[
					0.060452718287706375,
					0.060452718287706375,
					0.060452718287706375,
					1
				],
				"metallicFactor":0
			}
		},
		{
			"doubleSided":true,
			"name":"Metal1",
			"pbrMetallicRoughness":{
				"metallicFactor":0
			}
		},
		{
			"doubleSided":true,
			"name":"Windows",
			"pbrMetallicRoughness":{
				"baseColorFactor":[
					0,
					0.7456964254379272,
					0.8003232479095459,
					1
				],
				"metallicFactor":0
			}
		},
		{
			"doubleSided":true,
			"name":"Metal2.001",
			"pbrMetallicRoughness":{
				"baseColorFactor":[
					0.060452718287706375,
					0.060452718287706375,
					0.060452718287706375,
					1
				],
				"metallicFactor":0
			}
		}
	],
	"meshes":[
		{
			"name":"Plane.002",
			"primitives":[
				{
					"attributes":{
						"POSITION":0,
						"NORMAL":1,
						"TEXCOORD_0":2
					},
					"indices":3,
					"material":0
				}
			]
		},
		{
			"name":"Plane.003",
			"primitives":[
				{
					"attributes":{
						"POSITION":4,
						"NORMAL":5,
						"TEXCOORD_0":6
					},
					"indices":7,
					"material":0
				}
			]
		},
		{
			"name":"Cube.005",
			"primitives":[
				{
					"attributes":{
						"POSITION":8,
						"NORMAL":9,
						"TEXCOORD_0":10
					},
					"indices":11,
					"material":1
				}
			]
		},
		{
			"name":"Cube.012",
			"primitives":[
				{
					"attributes":{
						"POSITION":12,
						"NORMAL":13,
						"TEXCOORD_0":14
					},
					"indices":15,
					"material":2
				},
				{
					"attributes":{
						"POSITION":16,
						"NORMAL":17,
						"TEXCOORD_0":18
					},
					"indices":19,
					"material":3
				},
				{
					"attributes":{
						"POSITION":20,
						"NORMAL":21,
						"TEXCOORD_0":22
					},
					"indices":23,
					"material":4
				}
			]
		},
		{
			"name":"Cylinder.002",
			"primitives":[
				{
					"attributes":{
						"POSITION":24,
						"NORMAL":25,
						"TEXCOORD_0":26
					},
					"indices":27,
					"material":5
				}
			]
		}
	],
	"accessors":[
		{
			"bufferView":0,
			"componentType":5126,
			"count":40,
			"max":[
				1.0071402788162231,
				0.9420406818389893,
				4.967686653137207
			],
			"min":[
				-1.0071402788162231,
				-1.0579593181610107,
				-0.2402544915676117
			],
			"type":"VEC3"
		},
		{
			"bufferView":1,
			"componentType":5126,
			"count":40,
			"type":"VEC3"
		},
		{
			"bufferView":2,
			"componentType":5126,
			"count":40,
			"type":"VEC2"
		},
		{
			"bufferView":3,
			"componentType":5123,
			"count":60,
			"type":"SCALAR"
		},
		{
			"bufferView":4,
			"componentType":5126,
			"count":88,
			"max":[
				1.6572895050048828,
				-0.17037433385849,
				5.201430320739746
			],
			"min":[
				-1.6572895050048828,
				-0.3024978041648865,
				-5.198848724365234
			],
			"type":"VEC3"
		},
		{
			"bufferView":5,
			"componentType":5126,
			"count":88,
			"type":"VEC3"
		},
		{
			"bufferView":6,
			"componentType":5126,
			"count":88,
			"type":"VEC2"
		},
		{
			"bufferView":7,
			"componentType":5123,
			"count":144,
			"type":"SCALAR"
		},
		{
			"bufferView":8,
			"componentType":5126,
			"count":24,
			"max":[
				1.126802682876587,
				8.132353782653809,
				-0.2314118593931198
			],
			"min":[
				-1.1268022060394287,
				5.517326831817627,
				-1.617131233215332
			],
			"type":"VEC3"
		},
		{
			"bufferView":9,
			"componentType":5126,
			"count":24,
			"type":"VEC3"
		},
		{
			"bufferView":10,
			"componentType":5126,
			"count":24,
			"type":"VEC2"
		},
		{
			"bufferView":11,
			"componentType":5123,
			"count":48,
			"type":"SCALAR"
		},
		{
			"bufferView":12,
			"componentType":5126,
			"count":96,
			"max":[
				0.14626815915107727,
				9.344820976257324,
				3.6101300716400146
			],
			"min":[
				-0.14626815915107727,
				7.127902030944824,
				-3.6101300716400146
			],
			"type":"VEC3"
		},
		{
			"bufferView":13,
			"componentType":5126,
			"count":96,
			"type":"VEC3"
		},
		{
			"bufferView":14,
			"componentType":5126,
			"count":96,
			"type":"VEC2"
		},
		{
			"bufferView":15,
			"componentType":5123,
			"count":288,
			"type":"SCALAR"
		},
		{
			"bufferView":16,
			"componentType":5126,
			"count":2043,
			"max":[
				1.2263474464416504,
				9.648189544677734,
				4.139887809753418
			],
			"min":[
				-1.2263474464416504,
				-1.771754264831543,
				-4.139887809753418
			],
			"type":"VEC3"
		},
		{
			"bufferView":17,
			"componentType":5126,
			"count":2043,
			"type":"VEC3"
		},
		{
			"bufferView":18,
			"componentType":5126,
			"count":2043,
			"type":"VEC2"
		},
		{
			"bufferView":19,
			"componentType":5123,
			"count":4332,
			"type":"SCALAR"
		},
		{
			"bufferView":20,
			"componentType":5126,
			"count":48,
			"max":[
				0.1158626452088356,
				9.216045379638672,
				3.6101300716400146
			],
			"min":[
				-0.1158626452088356,
				7.2193756103515625,
				-3.6101300716400146
			],
			"type":"VEC3"
		},
		{
			"bufferView":21,
			"componentType":5126,
			"count":48,
			"type":"VEC3"
		},
		{
			"bufferView":22,
			"componentType":5126,
			"count":48,
			"type":"VEC2"
		},
		{
			"bufferView":23,
			"componentType":5123,
			"count":120,
			"type":"SCALAR"
		},
		{
			"bufferView":24,
			"componentType":5126,
			"count":2392,
			"max":[
				1.3831720352172852,
				0.3216577470302582,
				4.107669830322266
			],
			"min":[
				-1.3831720352172852,
				-0.852523684501648,
				-4.107669830322266
			],
			"type":"VEC3"
		},
		{
			"bufferView":25,
			"componentType":5126,
			"count":2392,
			"type":"VEC3"
		},
		{
			"bufferView":26,
			"componentType":5126,
			"count":2392,
			"type":"VEC2"
		},
		{
			"bufferView":27,
			"componentType":5123,
			"count":4944,
			"type":"SCALAR"
		}
	],
	"bufferViews":[
		{
			"buffer":0,
			"byteLength":480,
			"byteOffset":0,
			"target":34962
		},
		{
			"buffer":0,
			"byteLength":480,
			"byteOffset":480,
			"target":34962
		},
		{
			"buffer":0,
			"byteLength":320,
			"byteOffset":960,
			"target":34962
		},
		{
			"buffer":0,
			"byteLength":120,
			"byteOffset":1280,
			"target":34963
		},
		{
			"buffer":0,
			"byteLength":1056,
			"byteOffset":1400,
			"target":34962
		},
		{
			"buffer":0,
			"byteLength":1056,
			"byteOffset":2456,
			"target":34962
		},
		{
			"buffer":0,
			"byteLength":704,
			"byteOffset":3512,
			"target":34962
		},
		{
			"buffer":0,
			"byteLength":288,
			"byteOffset":4216,
			"target":34963
		},
		{
			"buffer":0,
			"byteLength":288,
			"byteOffset":4504,
			"target":34962
		},
		{
			"buffer":0,
			"byteLength":288,
			"byteOffset":4792,
			"target":34962
		},
		{
			"buffer":0,
			"byteLength":192,
			"byteOffset":5080,
			"target":34962
		},
		{
			"buffer":0,
			"byteLength":96,
			"byteOffset":5272,
			"target":34963
		},
		{
			"buffer":0,
			"byteLength":1152,
			"byteOffset":5368,
			"target":34962
		},
		{
			"buffer":0,
			"byteLength":1152,
			"byteOffset":6520,
			"target":34962
		},
		{
			"buffer":0,
			"byteLength":768,
			"byteOffset":7672,
			"target":34962
		},
		{
			"buffer":0,
			"byteLength":576,
			"byteOffset":8440,
			"target":34963
		},
		{
			"buffer":0,
			"byteLength":24516,
			"byteOffset":9016,
			"target":34962
		},
		{
			"buffer":0,
			"byteLength":24516,
			"byteOffset":33532,
			"target":34962
		},
		{
			"buffer":0,
			"byteLength":16344,
			"byteOffset":58048,
			"target":34962
		},
		{
			"buffer":0,
			"byteLength":8664,
			"byteOffset":74392,
			"target":34963
		},
		{
			"buffer":0,
			"byteLength":576,
			"byteOffset":83056,
			"target":34962
		},
		{
			"buffer":0,
			"byteLength":576,
			"byteOffset":83632,
			"target":34962
		},
		{
			"buffer":0,
			"byteLength":384,
			"byteOffset":84208,
			"target":34962
		},
		{
			"buffer":0,
			"byteLength":240,
			"byteOffset":84592,
			"target":34963
		},
		{
			"buffer":0,
			"byteLength":28704,
			"byteOffset":84832,
			"target":34962
		},
		{
			"buffer":0,
			"byteLength":28704,
			"byteOffset":113536,
			"target":34962
		},
		{
			"buffer":0,
			"byteLength":19136,
			"byteOffset":142240,
			"target":34962
		},
		{
			"buffer":0,
			"byteLength":9888,
			"byteOffset":161376,
			"target":34963
		}
	],
	"buffers":[
		{
			"byteLength":171264,
			"uri":"Train1.bin"
		}
	]
}
